{
  "accessors": [
    {
      "bufferView": 2,
      "componentType": 5126,
      "count": 65532,
      "max": [
        3.570096969604492,
        0.06742700189352036,
        1.3082929849624634
      ],
      "min": [
        0.3296310007572174,
        0.016316000372171402,
        -2.45723295211792
      ],
      "type": "VEC3"
    },
    {
      "bufferView": 2,
      "byteOffset": 786384,
      "componentType": 5126,
      "count": 65532,
      "max": [
        0.9998552203178406,
        0.9503139853477478,
        0.9967516660690308
      ],
      "min": [
        -0.9993681311607361,
        -0.9999998807907104,
        -0.9964578747749329
      ],
      "type": "VEC3"
    },
    {
      "bufferView": 1,
      "componentType": 5126,
      "count": 65532,
      "max": [
        0.9941549897193909,
        0.9989960193634033
      ],
      "min": [
        1.9999999494757503e-05,
        0.08972200006246567
      ],
      "type": "VEC2"
    },
    {
      "bufferView": 0,
      "componentType": 5125,
      "count": 368970,
      "type": "SCALAR"
    },
    {
      "bufferView": 2,
      "byteOffset": 1572768,
      "componentType": 5126,
      "count": 65532,
      "max": [
        5.226530075073242,
        0.07392100244760513,
        3.881237030029297
      ],
      "min": [
        0.012055999599397182,
        -0.010754000395536423,
        -3.1336660385131836
      ],
      "type": "VEC3"
    },
    {
      "bufferView": 2,
      "byteOffset": 2359152,
      "componentType": 5126,
      "count": 65532,
      "max": [
        0.9997668862342834,
        0.9996326565742493,
        0.9986249804496765
      ],
      "min": [
        -0.9992813467979431,
        -1.0,
        -0.9980378746986389
      ],
      "type": "VEC3"
    },
    {
      "bufferView": 1,
      "byteOffset": 524256,
      "componentType": 5126,
      "count": 65532,
      "max": [
        0.9996880292892456,
        1.0
      ],
      "min": [
        0.0,
        0.0005409999866969883
      ],
      "type": "VEC2"
    },
    {
      "bufferView": 0,
      "byteOffset": 1475880,
      "componentType": 5125,
      "count": 361377,
      "type": "SCALAR"
    },
    {
      "bufferView": 2,
      "byteOffset": 3145536,
      "componentType": 5126,
      "count": 65532,
      "max": [
        5.215043067932129,
        0.13909299671649933,
        2.433422088623047
      ],
      "min": [
        -1.782006025314331,
        -0.00431300001218915,
        -4.886058807373047
      ],
      "type": "VEC3"
    },
    {
      "bufferView": 2,
      "byteOffset": 3931920,
      "componentType": 5126,
      "count": 65532,
      "max": [
        0.9998613595962524,
        0.9999987483024597,
        0.9999840259552002
      ],
      "min": [
        -0.9999695420265198,
        -0.9999998807907104,
        -0.9999876618385315
      ],
      "type": "VEC3"
    },
    {
      "bufferView": 1,
      "byteOffset": 1048512,
      "componentType": 5126,
      "count": 65532,
      "max": [
        0.9993939995765686,
        0.9998199939727783
      ],
      "min": [
        0.0006290000164881349,
        0.001167000038549304
      ],
      "type": "VEC2"
    },
    {
      "bufferView": 0,
      "byteOffset": 2921388,
      "componentType": 5125,
      "count": 355161,
      "type": "SCALAR"
    },
    {
      "bufferView": 2,
      "byteOffset": 4718304,
      "componentType": 5126,
      "count": 65532,
      "max": [
        1.3998810052871704,
        0.07954200357198715,
        0.8624039888381958
      ],
      "min": [
        -1.0639519691467285,
        0.023344000801444054,
        -1.9430140256881714
      ],
      "type": "VEC3"
    },
    {
      "bufferView": 2,
      "byteOffset": 5504688,
      "componentType": 5126,
      "count": 65532,
      "max": [
        0.9996993541717529,
        0.9999956488609314,
        0.9995198845863342
      ],
      "min": [
        -0.9999850988388062,
        -0.9999996423721313,
        -0.9990571141242981
      ],
      "type": "VEC3"
    },
    {
      "bufferView": 1,
      "byteOffset": 1572768,
      "componentType": 5126,
      "count": 65532,
      "max": [
        1.0,
        1.0
      ],
      "min": [
        0.0,
        0.0
      ],
      "type": "VEC2"
    },
    {
      "bufferView": 0,
      "byteOffset": 4342032,
      "componentType": 5125,
      "count": 343338,
      "type": "SCALAR"
    },
    {
      "bufferView": 2,
      "byteOffset": 6291072,
      "componentType": 5126,
      "count": 65532,
      "max": [
        0.5389739871025085,
        0.10867200046777725,
        0.4543049931526184
      ],
      "min": [
        -4.17219877243042,
        0.030146999284625053,
        -2.8032751083374023
      ],
      "type": "VEC3"
    },
    {
      "bufferView": 2,
      "byteOffset": 7077456,
      "componentType": 5126,
      "count": 65532,
      "max": [
        0.9996581077575684,
        0.9999920129776001,
        0.9998366236686707
      ],
      "min": [
        -0.9998353719711304,
        -0.9999998807907104,
        -0.9999774694442749
      ],
      "type": "VEC3"
    },
    {
      "bufferView": 1,
      "byteOffset": 2097024,
      "componentType": 5126,
      "count": 65532,
      "max": [
        0.9998030066490173,
        0.9999849796295166
      ],
      "min": [
        0.0,
        0.0004870000120718032
      ],
      "type": "VEC2"
    },
    {
      "bufferView": 0,
      "byteOffset": 5715384,
      "componentType": 5125,
      "count": 353922,
      "type": "SCALAR"
    },
    {
      "bufferView": 2,
      "byteOffset": 7863840,
      "componentType": 5126,
      "count": 65532,
      "max": [
        1.4952739477157593,
        0.2505730092525482,
        -1.3064769506454468
      ],
      "min": [
        -5.307881832122803,
        0.012368000112473965,
        -4.882185935974121
      ],
      "type": "VEC3"
    },
    {
      "bufferView": 2,
      "byteOffset": 8650224,
      "componentType": 5126,
      "count": 65532,
      "max": [
        0.9998403787612915,
        0.9999904632568359,
        0.9999840259552002
      ],
      "min": [
        -0.9998403787612915,
        -1.0,
        -0.9997875094413757
      ],
      "type": "VEC3"
    },
    {
      "bufferView": 1,
      "byteOffset": 2621280,
      "componentType": 5126,
      "count": 65532,
      "max": [
        0.999396026134491,
        1.0
      ],
      "min": [
        9.000000318337698e-06,
        0.0005029999883845448
      ],
      "type": "VEC2"
    },
    {
      "bufferView": 0,
      "byteOffset": 7131072,
      "componentType": 5125,
      "count": 358926,
      "type": "SCALAR"
    },
    {
      "bufferView": 2,
      "byteOffset": 9436608,
      "componentType": 5126,
      "count": 65532,
      "max": [
        5.230709075927734,
        0.10670699924230576,
        4.6710968017578125
      ],
      "min": [
        -5.296335220336914,
        0.0024510000366717577,
        -4.870511054992676
      ],
      "type": "VEC3"
    },
    {
      "bufferView": 2,
      "byteOffset": 10222992,
      "componentType": 5126,
      "count": 65532,
      "max": [
        0.9839266538619995,
        0.9929266571998596,
        0.9890391230583191
      ],
      "min": [
        -0.9930760264396667,
        -0.9999998807907104,
        -0.9752811193466187
      ],
      "type": "VEC3"
    },
    {
      "bufferView": 1,
      "byteOffset": 3145536,
      "componentType": 5126,
      "count": 65532,
      "max": [
        0.9989190101623535,
        0.9954180121421814
      ],
      "min": [
        0.04413999989628792,
        0.0031789999920874834
      ],
      "type": "VEC2"
    },
    {
      "bufferView": 0,
      "byteOffset": 8566776,
      "componentType": 5125,
      "count": 367224,
      "type": "SCALAR"
    },
    {
      "bufferView": 2,
      "byteOffset": 11009376,
      "componentType": 5126,
      "count": 65532,
      "max": [
        4.924505233764648,
        0.07777199894189835,
        4.689589977264404
      ],
      "min": [
        -2.044847011566162,
        -0.0006949999951757491,
        -0.18235799670219421
      ],
      "type": "VEC3"
    },
    {
      "bufferView": 2,
      "byteOffset": 11795760,
      "componentType": 5126,
      "count": 65532,
      "max": [
        0.9989814758300781,
        0.99990314245224,
        0.9996452331542969
      ],
      "min": [
        -0.9997972249984741,
        -1.0,
        -0.9996452331542969
      ],
      "type": "VEC3"
    },
    {
      "bufferView": 1,
      "byteOffset": 3669792,
      "componentType": 5126,
      "count": 65532,
      "max": [
        0.9906610250473022,
        0.9983320236206055
      ],
      "min": [
        0.0,
        0.0020280000753700733
      ],
      "type": "VEC2"
    },
    {
      "bufferView": 0,
      "byteOffset": 10035672,
      "componentType": 5125,
      "count": 358959,
      "type": "SCALAR"
    },
    {
      "bufferView": 2,
      "byteOffset": 12582144,
      "componentType": 5126,
      "count": 65532,
      "max": [
        1.4990090131759644,
        0.08883699774742126,
        4.680870056152344
      ],
      "min": [
        -3.0359530448913574,
        0.022053999826312065,
        -1.075456976890564
      ],
      "type": "VEC3"
    },
    {
      "bufferView": 2,
      "byteOffset": 13368528,
      "componentType": 5126,
      "count": 65532,
      "max": [
        0.9989355802536011,
        0.9978921413421631,
        0.9974740147590637
      ],
      "min": [
        -0.9988868832588196,
        -0.9999998807907104,
        -0.99920654296875
      ],
      "type": "VEC3"
    },
    {
      "bufferView": 1,
      "byteOffset": 4194048,
      "componentType": 5126,
      "count": 65532,
      "max": [
        0.9995189905166626,
        0.9999799728393555
      ],
      "min": [
        0.00041599999531172216,
        0.0015269999857991934
      ],
      "type": "VEC2"
    },
    {
      "bufferView": 0,
      "byteOffset": 11471508,
      "componentType": 5125,
      "count": 355677,
      "type": "SCALAR"
    },
    {
      "bufferView": 2,
      "byteOffset": 14154912,
      "componentType": 5126,
      "count": 65532,
      "max": [
        -0.3508070111274719,
        0.10214900225400925,
        4.707040786743164
      ],
      "min": [
        -5.258648872375488,
        0.02482300065457821,
        -1.8965590000152588
      ],
      "type": "VEC3"
    },
    {
      "bufferView": 2,
      "byteOffset": 14941296,
      "componentType": 5126,
      "count": 65532,
      "max": [
        0.9975079894065857,
        0.9999679923057556,
        0.999719500541687
      ],
      "min": [
        -0.9993624687194824,
        -0.9999998807907104,
        -0.9995532631874084
      ],
      "type": "VEC3"
    },
    {
      "bufferView": 1,
      "byteOffset": 4718304,
      "componentType": 5126,
      "count": 65532,
      "max": [
        0.9993900060653687,
        0.9989519715309143
      ],
      "min": [
        0.0,
        0.0005610000225715339
      ],
      "type": "VEC2"
    },
    {
      "bufferView": 0,
      "byteOffset": 12894216,
      "componentType": 5125,
      "count": 359340,
      "type": "SCALAR"
    },
    {
      "bufferView": 2,
      "byteOffset": 15727680,
      "componentType": 5126,
      "count": 65532,
      "max": [
        5.215702056884766,
        0.1430640071630478,
        4.244654178619385
      ],
      "min": [
        -5.292753219604492,
        -0.007708000019192696,
        -4.905591011047363
      ],
      "type": "VEC3"
    },
    {
      "bufferView": 2,
      "byteOffset": 16514064,
      "componentType": 5126,
      "count": 65532,
      "max": [
        0.9999775290489197,
        0.9999909996986389,
        0.9999840259552002
      ],
      "min": [
        -0.9994524717330933,
        -1.0,
        -0.9993607401847839
      ],
      "type": "VEC3"
    },
    {
      "bufferView": 1,
      "byteOffset": 5242560,
      "componentType": 5126,
      "count": 65532,
      "max": [
        0.9998970031738281,
        1.0
      ],
      "min": [
        9.000000318337698e-06,
        0.0003809999907389283
      ],
      "type": "VEC2"
    },
    {
      "bufferView": 0,
      "byteOffset": 14331576,
      "componentType": 5125,
      "count": 317556,
      "type": "SCALAR"
    },
    {
      "bufferView": 2,
      "byteOffset": 17300448,
      "componentType": 5126,
      "count": 65533,
      "max": [
        5.167356014251709,
        0.19307999312877655,
        4.6872639656066895
      ],
      "min": [
        -5.29439115524292,
        -0.002773999935016036,
        -4.903351783752441
      ],
      "type": "VEC3"
    },
    {
      "bufferView": 2,
      "byteOffset": 18086844,
      "componentType": 5126,
      "count": 65533,
      "max": [
        0.9999997615814209,
        0.9999996423721313,
        0.999999463558197
      ],
      "min": [
        -0.9999855756759644,
        -0.9999998807907104,
        -0.9999921321868896
      ],
      "type": "VEC3"
    },
    {
      "bufferView": 1,
      "byteOffset": 5766816,
      "componentType": 5126,
      "count": 65533,
      "max": [
        0.9998530149459839,
        1.0
      ],
      "min": [
        0.0,
        1.700000029813964e-05
      ],
      "type": "VEC2"
    },
    {
      "bufferView": 0,
      "byteOffset": 15601800,
      "componentType": 5125,
      "count": 225816,
      "type": "SCALAR"
    },
    {
      "bufferView": 2,
      "byteOffset": 18873240,
      "componentType": 5126,
      "count": 65532,
      "max": [
        5.230562210083008,
        0.24811699986457825,
        4.706579208374023
      ],
      "min": [
        -5.286920070648193,
        -0.00924300029873848,
        -4.874335765838623
      ],
      "type": "VEC3"
    },
    {
      "bufferView": 2,
      "byteOffset": 19659624,
      "componentType": 5126,
      "count": 65532,
      "max": [
        0.9999995231628418,
        1.0,
        0.9999908804893494
      ],
      "min": [
        -0.9999995231628418,
        -0.9999998807907104,
        -0.9999997615814209
      ],
      "type": "VEC3"
    },
    {
      "bufferView": 1,
      "byteOffset": 6291080,
      "componentType": 5126,
      "count": 65532,
      "max": [
        0.9995149970054626,
        0.9999759793281555
      ],
      "min": [
        1.700000029813964e-05,
        5.900000178371556e-05
      ],
      "type": "VEC2"
    },
    {
      "bufferView": 0,
      "byteOffset": 16505064,
      "componentType": 5125,
      "count": 260181,
      "type": "SCALAR"
    },
    {
      "bufferView": 2,
      "byteOffset": 20446008,
      "componentType": 5126,
      "count": 34030,
      "max": [
        2.4498870372772217,
        0.13909299671649933,
        0.20157599449157715
      ],
      "min": [
        -2.986166000366211,
        0.017204999923706055,
        -4.882898807525635
      ],
      "type": "VEC3"
    },
    {
      "bufferView": 2,
      "byteOffset": 20854368,
      "componentType": 5126,
      "count": 34030,
      "max": [
        0.9999642372131348,
        0.999999463558197,
        0.9999871253967285
      ],
      "min": [
        -0.9999674558639526,
        -1.0,
        -0.9999862313270569
      ],
      "type": "VEC3"
    },
    {
      "bufferView": 1,
      "byteOffset": 6815336,
      "componentType": 5126,
      "count": 34030,
      "max": [
        0.9998070001602173,
        1.0
      ],
      "min": [
        0.0,
        0.00027600000612437725
      ],
      "type": "VEC2"
    },
    {
      "bufferView": 0,
      "byteOffset": 17545788,
      "componentType": 5125,
      "count": 113550,
      "type": "SCALAR"
    }
  ],
  "asset": {
    "extras": {
      "author": "Arqueomodel3D (https://sketchfab.com/juanbrualla)",
      "license": "CC-BY-4.0 (http://creativecommons.org/licenses/by/4.0/)",
      "source": "https://sketchfab.com/3d-models/crop-circles-uk-714676fb66514d34888803151a6499f2",
      "title": "Crop Circles - UK"
    },
    "generator": "Sketchfab-14.5.0",
    "version": "2.0"
  },
  "bufferViews": [
    {
      "buffer": 0,
      "byteLength": 17999988,
      "name": "floatBufferViews",
      "target": 34963
    },
    {
      "buffer": 0,
      "byteLength": 7087576,
      "byteOffset": 17999988,
      "byteStride": 8,
      "name": "floatBufferViews",
      "target": 34962
    },
    {
      "buffer": 0,
      "byteLength": 21262728,
      "byteOffset": 25087564,
      "byteStride": 12,
      "name": "floatBufferViews",
      "target": 34962
    }
  ],
  "buffers": [
    {
      "byteLength": 46350292,
      "uri": "scene.bin"
    }
  ],
  "images": [
    {
      "uri": "textures/CIRCLES.1001_baseColor.jpeg"
    }
  ],
  "materials": [
    {
      "doubleSided": true,
      "name": "CIRCLES.1001",
      "pbrMetallicRoughness": {
        "baseColorTexture": {
          "index": 0
        },
        "metallicFactor": 0.0
      }
    }
  ],
  "meshes": [
    {
      "name": "Object_0",
      "primitives": [
        {
          "attributes": {
            "NORMAL": 1,
            "POSITION": 0,
            "TEXCOORD_0": 2
          },
          "indices": 3,
          "material": 0,
          "mode": 4
        }
      ]
    },
    {
      "name": "Object_1",
      "primitives": [
        {
          "attributes": {
            "NORMAL": 5,
            "POSITION": 4,
            "TEXCOORD_0": 6
          },
          "indices": 7,
          "material": 0,
          "mode": 4
        }
      ]
    },
    {
      "name": "Object_2",
      "primitives": [
        {
          "attributes": {
            "NORMAL": 9,
            "POSITION": 8,
            "TEXCOORD_0": 10
          },
          "indices": 11,
          "material": 0,
          "mode": 4
        }
      ]
    },
    {
      "name": "Object_3",
      "primitives": [
        {
          "attributes": {
            "NORMAL": 13,
            "POSITION": 12,
            "TEXCOORD_0": 14
          },
          "indices": 15,
          "material": 0,
          "mode": 4
        }
      ]
    },
    {
      "name": "Object_4",
      "primitives": [
        {
          "attributes": {
            "NORMAL": 17,
            "POSITION": 16,
            "TEXCOORD_0": 18
          },
          "indices": 19,
          "material": 0,
          "mode": 4
        }
      ]
    },
    {
      "name": "Object_5",
      "primitives": [
        {
          "attributes": {
            "NORMAL": 21,
            "POSITION": 20,
            "TEXCOORD_0": 22
          },
          "indices": 23,
          "material": 0,
          "mode": 4
        }
      ]
    },
    {
      "name": "Object_6",
      "primitives": [
        {
          "attributes": {
            "NORMAL": 25,
            "POSITION": 24,
            "TEXCOORD_0": 26
          },
          "indices": 27,
          "material": 0,
          "mode": 4
        }
      ]
    },
    {
      "name": "Object_7",
      "primitives": [
        {
          "attributes": {
            "NORMAL": 29,
            "POSITION": 28,
            "TEXCOORD_0": 30
          },
          "indices": 31,
          "material": 0,
          "mode": 4
        }
      ]
    },
    {
      "name": "Object_8",
      "primitives": [
        {
          "attributes": {
            "NORMAL": 33,
            "POSITION": 32,
            "TEXCOORD_0": 34
          },
          "indices": 35,
          "material": 0,
          "mode": 4
        }
      ]
    },
    {
      "name": "Object_9",
      "primitives": [
        {
          "attributes": {
            "NORMAL": 37,
            "POSITION": 36,
            "TEXCOORD_0": 38
          },
          "indices": 39,
          "material": 0,
          "mode": 4
        }
      ]
    },
    {
      "name": "Object_10",
      "primitives": [
        {
          "attributes": {
            "NORMAL": 41,
            "POSITION": 40,
            "TEXCOORD_0": 42
          },
          "indices": 43,
          "material": 0,
          "mode": 4
        }
      ]
    },
    {
      "name": "Object_11",
      "primitives": [
        {
          "attributes": {
            "NORMAL": 45,
            "POSITION": 44,
            "TEXCOORD_0": 46
          },
          "indices": 47,
          "material": 0,
          "mode": 4
        }
      ]
    },
    {
      "name": "Object_12",
      "primitives": [
        {
          "attributes": {
            "NORMAL": 49,
            "POSITION": 48,
            "TEXCOORD_0": 50
          },
          "indices": 51,
          "material": 0,
          "mode": 4
        }
      ]
    },
    {
      "name": "Object_13",
      "primitives": [
        {
          "attributes": {
            "NORMAL": 53,
            "POSITION": 52,
            "TEXCOORD_0": 54
          },
          "indices": 55,
          "material": 0,
          "mode": 4
        }
      ]
    }
  ],
  "nodes": [
    {
      "children": [
        1
      ],
      "matrix": [
        1.0,
        0.0,
        0.0,
        0.0,
        0.0,
        -0.998720645904541,
        -0.05056785419583343,
        0.0,
        0.0,
        0.05056785419583343,
        -0.998720645904541,
        0.0,
        0.0,
        0.0,
        0.0,
        1.0
      ],
      "name": "Sketchfab_model"
    },
    {
      "children": [
        2,
        3,
        4,
        5,
        6,
        7,
        8,
        9,
        10,
        11,
        12,
        13,
        14,
        15
      ],
      "name": "CIRCLES.obj.cleaner.materialmerger.gles"
    },
    {
      "mesh": 0,
      "name": "Object_2"
    },
    {
      "mesh": 1,
      "name": "Object_3"
    },
    {
      "mesh": 2,
      "name": "Object_4"
    },
    {
      "mesh": 3,
      "name": "Object_5"
    },
    {
      "mesh": 4,
      "name": "Object_6"
    },
    {
      "mesh": 5,
      "name": "Object_7"
    },
    {
      "mesh": 6,
      "name": "Object_8"
    },
    {
      "mesh": 7,
      "name": "Object_9"
    },
    {
      "mesh": 8,
      "name": "Object_10"
    },
    {
      "mesh": 9,
      "name": "Object_11"
    },
    {
      "mesh": 10,
      "name": "Object_12"
    },
    {
      "mesh": 11,
      "name": "Object_13"
    },
    {
      "mesh": 12,
      "name": "Object_14"
    },
    {
      "mesh": 13,
      "name": "Object_15"
    }
  ],
  "samplers": [
    {
      "magFilter": 9729,
      "minFilter": 9987,
      "wrapS": 10497,
      "wrapT": 10497
    }
  ],
  "scene": 0,
  "scenes": [
    {
      "name": "Sketchfab_Scene",
      "nodes": [
        0
      ]
    }
  ],
  "textures": [
    {
      "sampler": 0,
      "source": 0
    }
  ]
}
