{
  "accessors": [
    {
      "bufferView": 2,
      "componentType": 5126,
      "count": 24911,
      "max": [
        6.187225818634033,
        10.532049179077148,
        6.366483688354492
      ],
      "min": [
        -7.2537841796875,
        -0.05312919616699219,
        -5.90723991394043
      ],
      "type": "VEC3"
    },
    {
      "bufferView": 2,
      "byteOffset": 298932,
      "componentType": 5126,
      "count": 24911,
      "max": [
        0.9994574785232544,
        0.9997018575668335,
        0.999866247177124
      ],
      "min": [
        -0.9998137950897217,
        -0.9999880790710449,
        -0.9999760389328003
      ],
      "type": "VEC3"
    },
    {
      "bufferView": 3,
      "componentType": 5126,
      "count": 24911,
      "max": [
        0.9999845623970032,
        0.9999932646751404,
        0.9998918175697327,
        1.0
      ],
      "min": [
        -0.9997846484184265,
        -0.9998875260353088,
        -0.9998525381088257,
        -1.0
      ],
      "type": "VEC4"
    },
    {
      "bufferView": 1,
      "componentType": 5126,
      "count": 24911,
      "max": [
        1.0,
        1.0
      ],
      "min": [
        0.0,
        0.0
      ],
      "type": "VEC2"
    },
    {
      "bufferView": 1,
      "byteOffset": 199288,
      "componentType": 5126,
      "count": 24911,
      "max": [
        0.0,
        0.0
      ],
      "min": [
        0.0,
        0.0
      ],
      "type": "VEC2"
    },
    {
      "bufferView": 0,
      "componentType": 5125,
      "count": 75546,
      "type": "SCALAR"
    }
  ],
  "asset": {
    "extras": {
      "author": "rhcreations (https://sketchfab.com/rhcreations)",
      "license": "CC-BY-4.0 (http://creativecommons.org/licenses/by/4.0/)",
      "source": "https://sketchfab.com/3d-models/cactus-2-downloadable-290ead6382604fb6b623dd0dc3deb07c",
      "title": "Cactus 2 (Downloadable)"
    },
    "generator": "Sketchfab-13.36.0",
    "version": "2.0"
  },
  "bufferViews": [
    {
      "buffer": 0,
      "byteLength": 302184,
      "name": "floatBufferViews",
      "target": 34963
    },
    {
      "buffer": 0,
      "byteLength": 398576,
      "byteOffset": 302184,
      "byteStride": 8,
      "name": "floatBufferViews",
      "target": 34962
    },
    {
      "buffer": 0,
      "byteLength": 597864,
      "byteOffset": 700760,
      "byteStride": 12,
      "name": "floatBufferViews",
      "target": 34962
    },
    {
      "buffer": 0,
      "byteLength": 398576,
      "byteOffset": 1298624,
      "byteStride": 16,
      "name": "floatBufferViews",
      "target": 34962
    }
  ],
  "buffers": [
    {
      "byteLength": 1697200,
      "uri": "scene.bin"
    }
  ],
  "extensionsRequired": [
    "KHR_materials_pbrSpecularGlossiness"
  ],
  "extensionsUsed": [
    "KHR_materials_pbrSpecularGlossiness"
  ],
  "images": [
    {
      "uri": "textures/Cactus_2_Material_diffuse.png"
    },
    {
      "uri": "textures/Cactus_2_Material_specularGlossiness.png"
    },
    {
      "uri": "textures/Cactus_2_Material_normal.png"
    }
  ],
  "materials": [
    {
      "doubleSided": true,
      "extensions": {
        "KHR_materials_pbrSpecularGlossiness": {
          "diffuseFactor": [
            1.0,
            1.0,
            1.0,
            1.0
          ],
          "diffuseTexture": {
            "index": 0
          },
          "glossinessFactor": 1.0,
          "specularFactor": [
            0.3094527540525341,
            0.3094527540525341,
            0.3094527540525341
          ],
          "specularGlossinessTexture": {
            "index": 1
          }
        }
      },
      "name": "Cactus_2_Material",
      "normalTexture": {
        "index": 2,
        "scale": 0.3399236512985744
      }
    }
  ],
  "meshes": [
    {
      "name": "Object_0",
      "primitives": [
        {
          "attributes": {
            "NORMAL": 1,
            "POSITION": 0,
            "TANGENT": 2,
            "TEXCOORD_0": 3,
            "TEXCOORD_1": 4
          },
          "indices": 5,
          "material": 0,
          "mode": 4
        }
      ]
    }
  ],
  "nodes": [
    {
      "children": [
        1
      ],
      "matrix": [
        1.0,
        0.0,
        0.0,
        0.0,
        0.0,
        2.220446049250313e-16,
        -1.0,
        0.0,
        0.0,
        1.0,
        2.220446049250313e-16,
        0.0,
        0.0,
        0.0,
        0.0,
        1.0
      ],
      "name": "Sketchfab_model"
    },
    {
      "children": [
        2
      ],
      "name": "root"
    },
    {
      "children": [
        3
      ],
      "matrix": [
        1.0,
        0.0,
        0.0,
        0.0,
        0.0,
        2.220446049250313e-16,
        1.0,
        0.0,
        0.0,
        -1.0,
        2.220446049250313e-16,
        0.0,
        0.0,
        0.0,
        0.0,
        1.0
      ],
      "name": "GLTF_SceneRootNode"
    },
    {
      "children": [
        4
      ],
      "matrix": [
        0.46876418590545654,
        0.0,
        0.0,
        0.0,
        0.0,
        0.46876418590545654,
        0.0,
        0.0,
        0.0,
        0.0,
        0.46876418590545654,
        0.0,
        0.0,
        0.0,
        0.0,
        1.0
      ],
      "name": "Cactus 2_0"
    },
    {
      "mesh": 0,
      "name": "Object_4"
    }
  ],
  "samplers": [
    {
      "magFilter": 9729,
      "minFilter": 9987,
      "wrapS": 10497,
      "wrapT": 10497
    }
  ],
  "scene": 0,
  "scenes": [
    {
      "name": "Sketchfab_Scene",
      "nodes": [
        0
      ]
    }
  ],
  "textures": [
    {
      "sampler": 0,
      "source": 0
    },
    {
      "sampler": 0,
      "source": 1
    },
    {
      "sampler": 0,
      "source": 2
    }
  ]
}
