{
	"asset":{
		"generator":"Khronos glTF Blender I/O v3.6.28",
		"version":"2.0"
	},
	"scene":0,
	"scenes":[
		{
			"name":"Scene",
			"nodes":[
				0
			]
		}
	],
	"nodes":[
		{
			"mesh":0,
			"name":"Sphere.008"
		}
	],
	"materials":[
		{
			"doubleSided":true,
			"name":"Pupilas",
			"pbrMetallicRoughness":{
				"baseColorFactor":[
					0,
					0,
					0,
					1
				],
				"metallicFactor":0,
				"roughnessFactor":0.20000000298023224
			}
		},
		{
			"doubleSided":true,
			"name":"Cuerpo",
			"pbrMetallicRoughness":{
				"metallicFactor":0,
				"roughnessFactor":0.5
			}
		},
		{
			"doubleSided":true,
			"name":"Antenas",
			"pbrMetallicRoughness":{
				"baseColorFactor":[
					0.00988800823688507,
					0.00988800823688507,
					0.00988800823688507,
					1
				],
				"metallicFactor":0,
				"roughnessFactor":0.699999988079071
			}
		},
		{
			"doubleSided":true,
			"name":"Ojos",
			"pbrMetallicRoughness":{
				"baseColorFactor":[
					0.800000011920929,
					0.800000011920929,
					0.800000011920929,
					1
				],
				"metallicFactor":0,
				"roughnessFactor":0.23454546928405762
			}
		}
	],
	"meshes":[
		{
			"name":"Sphere.008",
			"primitives":[
				{
					"attributes":{
						"POSITION":0,
						"NORMAL":1,
						"TEXCOORD_0":2
					},
					"indices":3,
					"material":0
				},
				{
					"attributes":{
						"POSITION":4,
						"NORMAL":5,
						"TEXCOORD_0":6
					},
					"indices":7,
					"material":1
				},
				{
					"attributes":{
						"POSITION":8,
						"NORMAL":9,
						"TEXCOORD_0":10
					},
					"indices":11,
					"material":2
				},
				{
					"attributes":{
						"POSITION":12,
						"NORMAL":13,
						"TEXCOORD_0":14
					},
					"indices":3,
					"material":3
				}
			]
		}
	],
	"accessors":[
		{
			"bufferView":0,
			"componentType":5126,
			"count":2442,
			"max":[
				1.1270272731781006,
				1.1543998718261719,
				0.3724817633628845
			],
			"min":[
				1.0442856550216675,
				0.6781948208808899,
				-0.36996573209762573
			],
			"type":"VEC3"
		},
		{
			"bufferView":1,
			"componentType":5126,
			"count":2442,
			"type":"VEC3"
		},
		{
			"bufferView":2,
			"componentType":5126,
			"count":2442,
			"type":"VEC2"
		},
		{
			"bufferView":3,
			"componentType":5123,
			"count":13248,
			"type":"SCALAR"
		},
		{
			"bufferView":4,
			"componentType":5126,
			"count":6829,
			"max":[
				0.9872310161590576,
				1.6259615421295166,
				2.045048713684082
			],
			"min":[
				-0.9872305393218994,
				0.0066667590290308,
				-2.0648155212402344
			],
			"type":"VEC3"
		},
		{
			"bufferView":5,
			"componentType":5126,
			"count":6829,
			"type":"VEC3"
		},
		{
			"bufferView":6,
			"componentType":5126,
			"count":6829,
			"type":"VEC2"
		},
		{
			"bufferView":7,
			"componentType":5123,
			"count":38400,
			"type":"SCALAR"
		},
		{
			"bufferView":8,
			"componentType":5126,
			"count":3200,
			"max":[
				0.05847763270139694,
				1.7922286987304688,
				1.7581899166107178
			],
			"min":[
				-0.05847763642668724,
				1.3069006204605103,
				-1.755673885345459
			],
			"type":"VEC3"
		},
		{
			"bufferView":9,
			"componentType":5126,
			"count":3200,
			"type":"VEC3"
		},
		{
			"bufferView":10,
			"componentType":5126,
			"count":3200,
			"type":"VEC2"
		},
		{
			"bufferView":11,
			"componentType":5123,
			"count":18432,
			"type":"SCALAR"
		},
		{
			"bufferView":12,
			"componentType":5126,
			"count":2442,
			"max":[
				1.096035361289978,
				1.2995307445526123,
				0.549700140953064
			],
			"min":[
				0.8685883283615112,
				0.5330632328987122,
				-0.5471841096878052
			],
			"type":"VEC3"
		},
		{
			"bufferView":13,
			"componentType":5126,
			"count":2442,
			"type":"VEC3"
		},
		{
			"bufferView":14,
			"componentType":5126,
			"count":2442,
			"type":"VEC2"
		}
	],
	"bufferViews":[
		{
			"buffer":0,
			"byteLength":29304,
			"byteOffset":0,
			"target":34962
		},
		{
			"buffer":0,
			"byteLength":29304,
			"byteOffset":29304,
			"target":34962
		},
		{
			"buffer":0,
			"byteLength":19536,
			"byteOffset":58608,
			"target":34962
		},
		{
			"buffer":0,
			"byteLength":26496,
			"byteOffset":78144,
			"target":34963
		},
		{
			"buffer":0,
			"byteLength":81948,
			"byteOffset":104640,
			"target":34962
		},
		{
			"buffer":0,
			"byteLength":81948,
			"byteOffset":186588,
			"target":34962
		},
		{
			"buffer":0,
			"byteLength":54632,
			"byteOffset":268536,
			"target":34962
		},
		{
			"buffer":0,
			"byteLength":76800,
			"byteOffset":323168,
			"target":34963
		},
		{
			"buffer":0,
			"byteLength":38400,
			"byteOffset":399968,
			"target":34962
		},
		{
			"buffer":0,
			"byteLength":38400,
			"byteOffset":438368,
			"target":34962
		},
		{
			"buffer":0,
			"byteLength":25600,
			"byteOffset":476768,
			"target":34962
		},
		{
			"buffer":0,
			"byteLength":36864,
			"byteOffset":502368,
			"target":34963
		},
		{
			"buffer":0,
			"byteLength":29304,
			"byteOffset":539232,
			"target":34962
		},
		{
			"buffer":0,
			"byteLength":29304,
			"byteOffset":568536,
			"target":34962
		},
		{
			"buffer":0,
			"byteLength":19536,
			"byteOffset":597840,
			"target":34962
		}
	],
	"buffers":[
		{
			"byteLength":617376,
			"uri":"data:application/octet-stream;base64,"
		}
	]
}
