{
  "accessors": [
    {
      "bufferView": 2,
      "componentType": 5126,
      "count": 31417,
      "max": [
        1.2188644409179688,
        4.437309265136719,
        1.1295076608657837
      ],
      "min": [
        -1.170182466506958,
        0.0,
        -0.7828866243362427
      ],
      "type": "VEC3"
    },
    {
      "bufferView": 2,
      "byteOffset": 377004,
      "componentType": 5126,
      "count": 31417,
      "max": [
        0.9999663829803467,
        0.9999954104423523,
        0.9999998211860657
      ],
      "min": [
        -0.9999663233757019,
        -0.9999992251396179,
        -0.9999998211860657
      ],
      "type": "VEC3"
    },
    {
      "bufferView": 3,
      "componentType": 5126,
      "count": 31417,
      "max": [
        0.9999721646308899,
        0.9999293684959412,
        0.9999988079071045,
        1.0
      ],
      "min": [
        -0.999998927116394,
        -0.9999914169311523,
        -0.9999839067459106,
        -1.0
      ],
      "type": "VEC4"
    },
    {
      "bufferView": 1,
      "componentType": 5126,
      "count": 31417,
      "max": [
        0.9922545552253723,
        0.9918117523193359
      ],
      "min": [
        0.009321451187133789,
        0.009025633335113525
      ],
      "type": "VEC2"
    },
    {
      "bufferView": 1,
      "byteOffset": 251336,
      "componentType": 5126,
      "count": 31417,
      "max": [
        0.9922545552253723,
        0.9918117523193359
      ],
      "min": [
        0.009321451187133789,
        0.009025633335113525
      ],
      "type": "VEC2"
    },
    {
      "bufferView": 1,
      "byteOffset": 502672,
      "componentType": 5126,
      "count": 31417,
      "max": [
        0.9922545552253723,
        0.9918117523193359
      ],
      "min": [
        0.009321451187133789,
        0.009025633335113525
      ],
      "type": "VEC2"
    },
    {
      "bufferView": 1,
      "byteOffset": 754008,
      "componentType": 5126,
      "count": 31417,
      "max": [
        0.9922545552253723,
        0.9918117523193359
      ],
      "min": [
        0.009321451187133789,
        0.009025633335113525
      ],
      "type": "VEC2"
    },
    {
      "bufferView": 1,
      "byteOffset": 1005344,
      "componentType": 5126,
      "count": 31417,
      "max": [
        0.9922545552253723,
        0.9918117523193359
      ],
      "min": [
        0.009321451187133789,
        0.009025633335113525
      ],
      "type": "VEC2"
    },
    {
      "bufferView": 0,
      "componentType": 5125,
      "count": 157704,
      "type": "SCALAR"
    }
  ],
  "asset": {
    "extras": {
      "author": "soufiane oujihi (https://sketchfab.com/sararoujihi)",
      "license": "CC-BY-4.0 (http://creativecommons.org/licenses/by/4.0/)",
      "source": "https://sketchfab.com/3d-models/sunflower-3d-966d0bee6e204d9ca927a601cf85cbc2",
      "title": "Sunflower 3D"
    },
    "generator": "Sketchfab-15.55.0",
    "version": "2.0"
  },
  "bufferViews": [
    {
      "buffer": 0,
      "byteLength": 630816,
      "name": "floatBufferViews",
      "target": 34963
    },
    {
      "buffer": 0,
      "byteLength": 1256680,
      "byteOffset": 630816,
      "byteStride": 8,
      "name": "floatBufferViews",
      "target": 34962
    },
    {
      "buffer": 0,
      "byteLength": 754008,
      "byteOffset": 1887496,
      "byteStride": 12,
      "name": "floatBufferViews",
      "target": 34962
    },
    {
      "buffer": 0,
      "byteLength": 502672,
      "byteOffset": 2641504,
      "byteStride": 16,
      "name": "floatBufferViews",
      "target": 34962
    }
  ],
  "buffers": [
    {
      "byteLength": 3144176,
      "uri": "scene.bin"
    }
  ],
  "extensionsRequired": [
    "KHR_materials_pbrSpecularGlossiness"
  ],
  "extensionsUsed": [
    "KHR_materials_pbrSpecularGlossiness"
  ],
  "images": [
    {
      "uri": "textures/material_0_diffuse.png"
    },
    {
      "uri": "textures/material_0_specularGlossiness.png"
    },
    {
      "uri": "textures/material_0_normal.png"
    },
    {
      "uri": "textures/material_0_occlusion.png"
    }
  ],
  "materials": [
    {
      "doubleSided": true,
      "extensions": {
        "KHR_materials_pbrSpecularGlossiness": {
          "diffuseFactor": [
            1.0,
            1.0,
            1.0,
            1.0
          ],
          "diffuseTexture": {
            "index": 0
          },
          "glossinessFactor": 1.0,
          "specularFactor": [
            1.0,
            1.0,
            1.0
          ],
          "specularGlossinessTexture": {
            "index": 1
          }
        }
      },
      "name": "material_0",
      "normalTexture": {
        "index": 2
      },
      "occlusionTexture": {
        "index": 3
      }
    }
  ],
  "meshes": [
    {
      "name": "Object_0",
      "primitives": [
        {
          "attributes": {
            "NORMAL": 1,
            "POSITION": 0,
            "TANGENT": 2,
            "TEXCOORD_0": 3,
            "TEXCOORD_1": 4,
            "TEXCOORD_2": 5,
            "TEXCOORD_3": 6,
            "TEXCOORD_4": 7
          },
          "indices": 8,
          "material": 0,
          "mode": 4
        }
      ]
    }
  ],
  "nodes": [
    {
      "children": [
        1
      ],
      "matrix": [
        1.0,
        0.0,
        0.0,
        0.0,
        0.0,
        2.220446049250313e-16,
        -1.0,
        0.0,
        0.0,
        1.0,
        2.220446049250313e-16,
        0.0,
        0.0,
        0.0,
        0.0,
        1.0
      ],
      "name": "Sketchfab_model"
    },
    {
      "children": [
        2
      ],
      "name": "root"
    },
    {
      "children": [
        3
      ],
      "matrix": [
        1.0,
        0.0,
        0.0,
        0.0,
        0.0,
        2.220446049250313e-16,
        1.0,
        0.0,
        0.0,
        -1.0,
        2.220446049250313e-16,
        0.0,
        0.0,
        0.0,
        0.0,
        1.0
      ],
      "name": "GLTF_SceneRootNode"
    },
    {
      "children": [
        4
      ],
      "matrix": [
        0.009999999776482582,
        0.0,
        0.0,
        0.0,
        0.0,
        0.009999999776482582,
        0.0,
        0.0,
        0.0,
        0.0,
        0.009999999776482582,
        0.0,
        0.0,
        0.0,
        0.0,
        1.0
      ],
      "name": "RootNode.0_0"
    },
    {
      "children": [
        5
      ],
      "name": "sunflower.1_1"
    },
    {
      "mesh": 0,
      "name": "Object_5"
    }
  ],
  "samplers": [
    {
      "magFilter": 9729,
      "minFilter": 9987,
      "wrapS": 10497,
      "wrapT": 10497
    }
  ],
  "scene": 0,
  "scenes": [
    {
      "name": "Sketchfab_Scene",
      "nodes": [
        0
      ]
    }
  ],
  "textures": [
    {
      "sampler": 0,
      "source": 0
    },
    {
      "sampler": 0,
      "source": 1
    },
    {
      "sampler": 0,
      "source": 2
    },
    {
      "sampler": 0,
      "source": 3
    }
  ]
}
