{
  "accessors": [
    {
      "bufferView": 2,
      "componentType": 5126,
      "count": 443,
      "max": [
        0.25354933738708496,
        0.17347188293933868,
        0.4778430759906769
      ],
      "min": [
        -0.25356656312942505,
        -0.17344719171524048,
        -0.3518691062927246
      ],
      "type": "VEC3"
    },
    {
      "bufferView": 2,
      "byteOffset": 5316,
      "componentType": 5126,
      "count": 443,
      "max": [
        0.9999957084655762,
        0.9999939203262329,
        0.999125063419342
      ],
      "min": [
        -0.9994871616363525,
        -0.9999517202377319,
        -1.0
      ],
      "type": "VEC3"
    },
    {
      "bufferView": 3,
      "componentType": 5126,
      "count": 443,
      "max": [
        0.9996786117553711,
        0.9991045594215393,
        0.9994179010391235,
        1.0
      ],
      "min": [
        -0.9999969005584717,
        -0.99992835521698,
        -0.9996254444122314,
        1.0
      ],
      "type": "VEC4"
    },
    {
      "bufferView": 1,
      "componentType": 5126,
      "count": 443,
      "max": [
        0.9868260622024536,
        0.9871479868888855
      ],
      "min": [
        0.007973015308380127,
        0.01751607656478882
      ],
      "type": "VEC2"
    },
    {
      "bufferView": 0,
      "componentType": 5125,
      "count": 1680,
      "type": "SCALAR"
    }
  ],
  "asset": {
    "extras": {
      "author": "National Heritage Administration (https://sketchfab.com/NHA_Asset)",
      "license": "CC-BY-4.0 (http://creativecommons.org/licenses/by/4.0/)",
      "source": "https://sketchfab.com/3d-models/rice-straw-3c092926478a45738982d72b114dbb11",
      "title": "Rice_Straw"
    },
    "generator": "Sketchfab-15.56.0",
    "version": "2.0"
  },
  "bufferViews": [
    {
      "buffer": 0,
      "byteLength": 6720,
      "name": "floatBufferViews",
      "target": 34963
    },
    {
      "buffer": 0,
      "byteLength": 3544,
      "byteOffset": 6720,
      "byteStride": 8,
      "name": "floatBufferViews",
      "target": 34962
    },
    {
      "buffer": 0,
      "byteLength": 10632,
      "byteOffset": 10264,
      "byteStride": 12,
      "name": "floatBufferViews",
      "target": 34962
    },
    {
      "buffer": 0,
      "byteLength": 7088,
      "byteOffset": 20896,
      "byteStride": 16,
      "name": "floatBufferViews",
      "target": 34962
    }
  ],
  "buffers": [
    {
      "byteLength": 27984,
      "uri": "scene.bin"
    }
  ],
  "images": [
    {
      "uri": "textures/M_Rice_Straw_baseColor.png"
    },
    {
      "uri": "textures/M_Rice_Straw_metallicRoughness.png"
    },
    {
      "uri": "textures/M_Rice_Straw_normal.png"
    }
  ],
  "materials": [
    {
      "doubleSided": true,
      "name": "M_Rice_Straw",
      "normalTexture": {
        "index": 2
      },
      "occlusionTexture": {
        "index": 1
      },
      "pbrMetallicRoughness": {
        "baseColorTexture": {
          "index": 0
        },
        "metallicFactor": 0.0,
        "metallicRoughnessTexture": {
          "index": 1
        }
      }
    }
  ],
  "meshes": [
    {
      "name": "SM_Rice_Straw_M_Rice_Straw_0",
      "primitives": [
        {
          "attributes": {
            "NORMAL": 1,
            "POSITION": 0,
            "TANGENT": 2,
            "TEXCOORD_0": 3
          },
          "indices": 4,
          "material": 0,
          "mode": 4
        }
      ]
    }
  ],
  "nodes": [
    {
      "children": [
        1
      ],
      "matrix": [
        1.0,
        0.0,
        0.0,
        0.0,
        0.0,
        2.220446049250313e-16,
        -1.0,
        0.0,
        0.0,
        1.0,
        2.220446049250313e-16,
        0.0,
        0.0,
        0.0,
        0.0,
        1.0
      ],
      "name": "Sketchfab_model"
    },
    {
      "children": [
        2
      ],
      "matrix": [
        0.009999999776482582,
        0.0,
        0.0,
        0.0,
        0.0,
        0.0,
        0.009999999776482582,
        0.0,
        0.0,
        -0.009999999776482582,
        0.0,
        0.0,
        0.0,
        0.0,
        0.0,
        1.0
      ],
      "name": "SM_Rice_Straw.fbx"
    },
    {
      "children": [
        3
      ],
      "name": "RootNode"
    },
    {
      "children": [
        4
      ],
      "matrix": [
        100.0,
        0.0,
        0.0,
        0.0,
        0.0,
        -1.629206793918314e-05,
        -99.99999999999868,
        0.0,
        0.0,
        99.99999999999868,
        -1.629206793918314e-05,
        0.0,
        0.0,
        35.437068939208984,
        0.0,
        1.0
      ],
      "name": "SM_Rice_Straw"
    },
    {
      "mesh": 0,
      "name": "SM_Rice_Straw_M_Rice_Straw_0"
    }
  ],
  "samplers": [
    {
      "magFilter": 9729,
      "minFilter": 9987,
      "wrapS": 10497,
      "wrapT": 10497
    }
  ],
  "scene": 0,
  "scenes": [
    {
      "name": "Sketchfab_Scene",
      "nodes": [
        0
      ]
    }
  ],
  "textures": [
    {
      "sampler": 0,
      "source": 0
    },
    {
      "sampler": 0,
      "source": 1
    },
    {
      "sampler": 0,
      "source": 2
    }
  ]
}
